<svg xmlns="http://www.w3.org/2000/svg" viewBox="0 0 800 800" role="img" aria-label="Estuche rígido de transporte">
<defs>
<radialGradient id="estuche-bg" cx="50%" cy="46%" r="70%"><stop offset="0" stop-color="#2d3136"/><stop offset="1" stop-color="#121315"/></radialGradient>
<linearGradient id="estuche-acero" x1="0" y1="0" x2="0" y2="1"><stop offset="0" stop-color="#a3abb2"/><stop offset=".35" stop-color="#666d74"/><stop offset=".75" stop-color="#3a3f45"/><stop offset="1" stop-color="#2a2e33"/></linearGradient>
<linearGradient id="estuche-pavon" x1="0" y1="0" x2="0" y2="1"><stop offset="0" stop-color="#565d65"/><stop offset=".4" stop-color="#2e3338"/><stop offset="1" stop-color="#1b1e22"/></linearGradient>
<linearGradient id="estuche-madera" x1="0" y1="0" x2="1" y2="1"><stop offset="0" stop-color="#8a6240"/><stop offset=".55" stop-color="#5e3f27"/><stop offset="1" stop-color="#3b2717"/></linearGradient>
<linearGradient id="estuche-polimero" x1="0" y1="0" x2="1" y2="1"><stop offset="0" stop-color="#3a3e44"/><stop offset="1" stop-color="#1a1c1f"/></linearGradient>
<linearGradient id="estuche-laton" x1="0" y1="0" x2="0" y2="1"><stop offset="0" stop-color="#e2c88c"/><stop offset="1" stop-color="#9a7a3f"/></linearGradient>
<linearGradient id="estuche-cristal" x1="0" y1="0" x2="1" y2="1"><stop offset="0" stop-color="#8fb0c4"/><stop offset="1" stop-color="#22343f"/></linearGradient>
<pattern id="estuche-veta" width="40" height="14" patternUnits="userSpaceOnUse" patternTransform="rotate(-6)"><path d="M0 4 Q10 0 20 4 T40 4 M0 11 Q10 7 20 11 T40 11" stroke="#20120a" stroke-opacity=".35" fill="none" stroke-width="1.2"/></pattern>
<pattern id="estuche-agarre" width="9" height="9" patternUnits="userSpaceOnUse"><circle cx="4.5" cy="4.5" r="1.3" fill="#000" fill-opacity=".45"/></pattern>
<filter id="estuche-sombra" x="-20%" y="-20%" width="140%" height="160%"><feDropShadow dx="0" dy="18" stdDeviation="16" flood-color="#000" flood-opacity=".55"/></filter>
</defs>
<rect width="800" height="800" fill="url(#estuche-bg)"/>
<ellipse cx="400" cy="640" rx="290" ry="26" fill="#000" opacity=".35"/>
<circle cx="400" cy="400" r="318" fill="none" stroke="#b8965a" stroke-opacity=".16" stroke-width="1.5"/>
<g transform="translate(400 400) rotate(0) scale(1.0) translate(-400 -400)" filter="url(#estuche-sombra)">

<g stroke-linejoin="round">
  <path d="M296 292 Q296 246 340 246 H460 Q504 246 504 292" fill="none" stroke="#25282c" stroke-width="18" stroke-linecap="round"/>
  <rect x="130" y="286" width="540" height="250" rx="34" fill="url(#estuche-polimero)"/>
  <rect x="130" y="286" width="540" height="250" rx="34" fill="none" stroke="#fff" stroke-opacity=".12" stroke-width="2"/>
  <path d="M130 402 H670" stroke="#0e0f11" stroke-width="5"/>
  <path d="M130 407 H670" stroke="#fff" stroke-opacity=".08" stroke-width="2"/>
  <rect x="200" y="380" width="46" height="44" rx="8" fill="url(#estuche-laton)"/><rect x="213" y="391" width="20" height="22" rx="4" fill="#5b4520"/><rect x="554" y="380" width="46" height="44" rx="8" fill="url(#estuche-laton)"/><rect x="567" y="391" width="20" height="22" rx="4" fill="#5b4520"/>
  <path d="M200 300 l0 72" stroke="#0e0f11" stroke-opacity=".45" stroke-width="4" stroke-linecap="round"/><path d="M230 300 l0 72" stroke="#0e0f11" stroke-opacity=".45" stroke-width="4" stroke-linecap="round"/><path d="M260 300 l0 72" stroke="#0e0f11" stroke-opacity=".45" stroke-width="4" stroke-linecap="round"/><path d="M200 430 l0 90" stroke="#0e0f11" stroke-opacity=".45" stroke-width="4" stroke-linecap="round"/><path d="M230 430 l0 90" stroke="#0e0f11" stroke-opacity=".45" stroke-width="4" stroke-linecap="round"/><path d="M260 430 l0 90" stroke="#0e0f11" stroke-opacity=".45" stroke-width="4" stroke-linecap="round"/>
  <rect x="520" y="438" width="120" height="44" rx="6" fill="#0e0f11" opacity=".5"/>
  <circle cx="350" cy="410" r="4" fill="url(#estuche-laton)"/><circle cx="450" cy="410" r="4" fill="url(#estuche-laton)"/>
</g>
</g>
</svg>
